# xmcd
# 
# Track frame offsets:
#     150
#     18540
#     40404
#     56969
#     74237
#     94559
#     113106
#     134597
#     151568
#     171489
#     190515
#     211431
#     231923
#     249620
#     266763
#     286460
# 
# Disc length: 4107
# 
# Revision: 1
# Processed by: cddbd v1.5.2PL0 Copyright (c) Steve Scherf et al.
# Submitted via: fre:ac v1.0.27
# 
DISCID=f5100910
DTITLE=Various Artist - 『らき☆すた』歌のベスト～アニメ放送10周年記念盤～ [CD2]
DYEAR=2017
DGENRE=Anime
TTITLE0=泉こなた（平野綾） - どんだけファンファーレ
TTITLE1=泉こなた（平野綾） - Dドライヴ／ラヴ
TTITLE2=柊かがみ（加藤英美里） - ケンカ予報の時間だよ
TTITLE3=柊かがみ（加藤英美里） - 100％？ナイナイナイ
TTITLE4=柊つかさ（福原香織） - 寝・逃・げでリセット！
TTITLE5=柊つかさ（福原香織） - しすたー・うぉーず
TTITLE6=高良みゆき（遠藤綾） - 萌え要素ってなんですか？
TTITLE7=高良みゆき（遠藤綾） - たぶんかなり普通の休日
TTITLE8=小早川ゆたか（長谷川静香） - みにまむテンポ
TTITLE9=小早川ゆたか（長谷川静香） - たとえばピンクとブルーでも
TTITLE10=岩崎みなみ（茅原実里） - 黙っと休み時間
TTITLE11=岩崎みなみ（茅原実里） - 透明リボン
TTITLE12=田村ひより（清水香里） - も、妄想マシーン。
TTITLE13=田村ひより（清水香里） - デフォルト女子高生にゃん
TTITLE14=パトリシア・マーティン（ささきのぞみ） - こすぷれノこころえ
TTITLE15=パトリシア・マーティン（ささきのぞみ） - 最大聖地カーニバル
EXTD=
EXTT0=
EXTT1=
EXTT2=
EXTT3=
EXTT4=
EXTT5=
EXTT6=
EXTT7=
EXTT8=
EXTT9=
EXTT10=
EXTT11=
EXTT12=
EXTT13=
EXTT14=
EXTT15=
PLAYORDER=
